<svg height="420pt" viewBox="-4 0 420 420.90919" width="420pt" xmlns="http://www.w3.org/2000/svg"><path d="m227.296875 339.074219c-10.8125 2.445312-21.859375 3.679687-32.941406 3.683593-82.082031 0-148.859375-66.777343-148.859375-148.859374 0-82.082032 66.777344-148.855469 148.859375-148.855469 82.078125 0 148.855469 66.773437 148.855469 148.855469.015624 14.394531-2.0625 28.71875-6.164063 42.519531 15.1875 1.695312 29.757813 6.953125 42.535156 15.339843 5.238281-16.8125 8.152344-34.257812 8.671875-51.855468h-14.679687c-3.3125 0-6-2.6875-6-6s2.6875-6 6-6h14.679687c-1.429687-47.28125-20.148437-92.394532-52.613281-126.800782l-10.316406 10.316407c-2.339844 2.34375-6.140625 2.34375-8.484375 0s-2.34375-6.144531 0-8.484375l10.316406-10.316406c-34.40625-32.464844-79.519531-51.183594-126.800781-52.617188v14.679688c0 3.3125-2.6875 6-6 6-3.316407 0-6-2.6875-6-6v-14.679688c-47.28125 1.433594-92.394531 20.152344-126.800781 52.617188l10.3125 10.3125c2.34375 2.34375 2.34375 6.144531 0 8.488281-2.339844 2.34375-6.140626 2.34375-8.484376 0l-10.3125-10.3125c-32.460937 34.402343-51.183593 79.511719-52.617187 126.792969h14.679687c3.316407 0 6 2.6875 6 6s-2.683593 6-6 6h-14.679687c1.433594 47.28125 20.152344 92.394531 52.617187 126.800781l10.3125-10.3125c2.34375-2.34375 6.140626-2.34375 8.484376-.003907 2.34375 2.34375 2.34375 6.144532 0 8.488282l-10.3125 10.3125c34.40625 32.460937 79.519531 51.179687 126.800781 52.613281v-14.679687c0-3.3125 2.683593-6 6-6 3.3125 0 6 2.6875 6 6v14.683593c13.289062-.402343 26.5-2.164062 39.429687-5.257812-7.53125-13.304688-11.808594-28.199219-12.488281-43.472657zm0 0"/><path d="m204.246094 134.476562h-46.75v53.933594h46.75c14.890625 0 26.964844-12.074218 26.964844-26.964844 0-14.894531-12.074219-26.96875-26.964844-26.96875zm0 0"/><path d="m204.246094 200.410156h-46.75v53.933594h46.75c14.890625 0 26.964844-12.074219 26.964844-26.964844 0-14.894531-12.074219-26.96875-26.964844-26.96875zm0 0"/><path d="m355.78125 253.09375c-25.332031-9.347656-53.574219-6.351562-76.378906 8.109375-22.804688 14.460937-37.5625 38.726563-39.910156 65.628906-.214844 2.480469-.324219 5.007813-.324219 7.511719.015625 43.875 32.84375 80.808594 76.417969 85.964844 43.574218 5.15625 84.117187-23.089844 94.371093-65.753906 10.253907-42.660157-13.019531-86.25-54.175781-101.460938zm6.039062 87.25h-30.058593v30.058594c0 3.3125-2.6875 6-6 6s-6-2.6875-6-6v-30.058594h-30.058594c-3.3125 0-6-2.6875-6-6 0-3.316406 2.6875-6 6-6h30.058594v-30.058594c0-3.3125 2.6875-6 6-6s6 2.6875 6 6v30.058594h30.058593c3.3125 0 6 2.683594 6 6 0 3.3125-2.6875 6-6 6zm0 0"/><path d="m194.355469 57.042969c-75.464844 0-136.859375 61.390625-136.859375 136.855469 0 75.460937 61.394531 136.859374 136.859375 136.859374 11.164062.003907 22.285156-1.355468 33.121093-4.042968.023438-.300782.03125-.609375.058594-.910156 4.386719-50.539063 46.421875-89.492188 97.152344-90.027344 4.335938-13.535156 6.539062-27.664063 6.523438-41.878906 0-75.464844-61.394532-136.855469-136.855469-136.855469zm48.855469 170.335937c-.023438 18.097656-12.488282 33.804688-30.109376 37.9375v16.78125c0 3.316406-2.6875 6-6 6s-6-2.683594-6-6v-15.753906h-19.207031v15.753906c0 3.316406-2.6875 6-6 6-3.316406 0-6-2.683594-6-6v-15.753906h-18.402343c-3.3125 0-6-2.683594-6-6v-131.867188c0-3.3125 2.6875-6 6-6h18.402343v-16.777343c0-3.316407 2.683594-6 6-6 3.3125 0 6 2.683593 6 6v16.777343h19.207031v-16.777343c0-3.316407 2.6875-6 6-6s6 2.683593 6 6v17.804687c15.3125 3.566406 26.976563 15.988282 29.574219 31.492188 2.597657 15.507812-4.382812 31.054687-17.695312 39.414062 11.339843 7.125 18.222656 19.574219 18.230469 32.96875zm0 0"/></svg>