<svg height="512pt" viewBox="0 0 512 512" width="512pt" xmlns="http://www.w3.org/2000/svg"><path d="m256 335.265625h-32.132812c-.359376 0-.714844-.027344-1.066407-.050781v34.316406h33.199219c4.574219 0 8.875-1.777344 12.105469-5.011719 3.246093-3.246093 5.027343-7.542969 5.027343-12.121093 0-9.445313-7.6875-17.132813-17.132812-17.132813zm0 0"/><path d="m448.800781 226h31.070313v-18.199219c0-43.710937-35.5625-79.269531-79.269532-79.269531h-321.332031c-27.167969 0-49.269531-22.101562-49.269531-49.261719 0-27.167969 22.101562-49.269531 49.269531-49.269531h353.460938c8.289062 0 15-6.71875 15-15s-6.710938-15-15-15h-353.460938c-43.710937 0-79.269531 35.558594-79.269531 79.269531v353.460938c0 43.710937 35.558594 79.269531 79.269531 79.269531h321.332031c43.707032 0 79.269532-35.558594 79.269532-79.269531v-18.199219h-31.070313c-51.980469 0-94.269531-42.28125-94.269531-94.261719s42.289062-94.269531 94.269531-94.269531zm-145.671875 126.398438c0 12.601562-4.898437 24.429687-13.808594 33.332031-8.890624 8.898437-20.71875 13.800781-33.320312 13.800781h-1.070312v17.140625c0 8.277344-6.710938 15-15 15-8.28125 0-15-6.722656-15-15v-17.140625h-33.199219c-8.28125 0-15-6.710938-15-15 0-8.28125 6.71875-15 15-15h1.070312v-98.53125h-1.070312c-8.28125 0-15-6.71875-15-15s6.71875-15 15-15h33.199219v-17.128906c0-8.292969 6.71875-15 15-15 8.289062 0 15 6.707031 15 15v17.128906h1.070312c12.601562 0 24.429688 4.910156 33.328125 13.820312 8.902344 8.878907 13.800781 20.71875 13.800781 33.308594 0 12.410156-4.808594 23.710938-12.679687 32.140625 7.871093 8.421875 12.679687 19.71875 12.679687 32.128907zm0 0"/><path d="m256 271h-33.199219v34.320312c.351563-.023437.707031-.054687 1.066407-.054687h32.132812c9.445312 0 17.132812-7.6875 17.132812-17.132813 0-4.574218-1.78125-8.875-5.015624-12.105468-3.242188-3.246094-7.542969-5.027344-12.117188-5.027344zm0 0"/><path d="m512 256v128.53125s-38 0-63.199219 0c-35.492187 0-64.269531-28.773438-64.269531-64.265625s28.777344-64.265625 64.269531-64.265625zm0 0"/><path d="m428.464844 98.53125h-349.199219c-10.640625 0-19.265625-8.625-19.265625-19.265625s8.625-19.265625 19.265625-19.265625h349.199219c10.640625 0 19.265625 8.625 19.265625 19.265625s-8.625 19.265625-19.265625 19.265625zm0 0"/></svg>